<?xml version="1.0" encoding="UTF-8"?>
<!--Generator: Apple Native CoreSVG 149-->
<!DOCTYPE svg
PUBLIC "-//W3C//DTD SVG 1.1//EN"
       "http://www.w3.org/Graphics/SVG/1.1/DTD/svg11.dtd">
<svg version="1.1" xmlns="http://www.w3.org/2000/svg" xmlns:xlink="http://www.w3.org/1999/xlink" width="3300" height="2200">
 <!--glyph: "uni100CCC.medium", point size: 100.000000, font version: "Version 16.0d12e3", template writer version: "8"-->
 <g id="Notes">
  <rect height="2200" id="artboard" style="fill:white;opacity:1" width="3300" x="0" y="0"/>
  <line id="" style="fill:none;stroke:black;opacity:1;stroke-width:0.5;" x1="263" x2="3036" y1="292" y2="292"/>
  <text style="stroke:none;fill:black;font-family:-apple-system,&quot;SF Pro Display&quot;,&quot;SF Pro Text&quot;,Helvetica,sans-serif;font-weight:bold;" transform="matrix(1 0 0 1 263 322)">Weight/Scale Variations</text>
  <text style="stroke:none;fill:black;font-family:-apple-system,&quot;SF Pro Display&quot;,&quot;SF Pro Text&quot;,Helvetica,sans-serif;text-anchor:middle;" transform="matrix(1 0 0 1 559.711 322)">Ultralight</text>
  <text style="stroke:none;fill:black;font-family:-apple-system,&quot;SF Pro Display&quot;,&quot;SF Pro Text&quot;,Helvetica,sans-serif;text-anchor:middle;" transform="matrix(1 0 0 1 856.422 322)">Thin</text>
  <text style="stroke:none;fill:black;font-family:-apple-system,&quot;SF Pro Display&quot;,&quot;SF Pro Text&quot;,Helvetica,sans-serif;text-anchor:middle;" transform="matrix(1 0 0 1 1153.13 322)">Light</text>
  <text style="stroke:none;fill:black;font-family:-apple-system,&quot;SF Pro Display&quot;,&quot;SF Pro Text&quot;,Helvetica,sans-serif;text-anchor:middle;" transform="matrix(1 0 0 1 1449.84 322)">Regular</text>
  <text style="stroke:none;fill:black;font-family:-apple-system,&quot;SF Pro Display&quot;,&quot;SF Pro Text&quot;,Helvetica,sans-serif;text-anchor:middle;" transform="matrix(1 0 0 1 1746.56 322)">Medium</text>
  <text style="stroke:none;fill:black;font-family:-apple-system,&quot;SF Pro Display&quot;,&quot;SF Pro Text&quot;,Helvetica,sans-serif;text-anchor:middle;" transform="matrix(1 0 0 1 2043.27 322)">Semibold</text>
  <text style="stroke:none;fill:black;font-family:-apple-system,&quot;SF Pro Display&quot;,&quot;SF Pro Text&quot;,Helvetica,sans-serif;text-anchor:middle;" transform="matrix(1 0 0 1 2339.98 322)">Bold</text>
  <text style="stroke:none;fill:black;font-family:-apple-system,&quot;SF Pro Display&quot;,&quot;SF Pro Text&quot;,Helvetica,sans-serif;text-anchor:middle;" transform="matrix(1 0 0 1 2636.69 322)">Heavy</text>
  <text style="stroke:none;fill:black;font-family:-apple-system,&quot;SF Pro Display&quot;,&quot;SF Pro Text&quot;,Helvetica,sans-serif;text-anchor:middle;" transform="matrix(1 0 0 1 2933.4 322)">Black</text>
  <line id="" style="fill:none;stroke:black;opacity:1;stroke-width:0.5;" x1="263" x2="3036" y1="1903" y2="1903"/>
  <g id="" transform="matrix(1 0 0 1 263 1933)">
   <path d="M9.24805 0.830078C13.5547 0.830078 17.1387-2.74414 17.1387-7.05078C17.1387-11.3574 13.5449-14.9316 9.23828-14.9316C4.94141-14.9316 1.36719-11.3574 1.36719-7.05078C1.36719-2.74414 4.95117 0.830078 9.24805 0.830078ZM9.24805-0.654297C5.70312-0.654297 2.87109-3.49609 2.87109-7.05078C2.87109-10.6055 5.69336-13.4473 9.23828-13.4473C12.793-13.4473 15.6348-10.6055 15.6445-7.05078C15.6543-3.49609 12.8027-0.654297 9.24805-0.654297ZM9.22852-3.62305C9.69727-3.62305 9.9707-3.93555 9.9707-4.45312L9.9707-6.31836L12.002-6.31836C12.5-6.31836 12.832-6.57227 12.832-7.04102C12.832-7.51953 12.5195-7.7832 12.002-7.7832L9.9707-7.7832L9.9707-9.81445C9.9707-10.332 9.69727-10.6543 9.22852-10.6543C8.75977-10.6543 8.50586-10.3125 8.50586-9.81445L8.50586-7.7832L6.49414-7.7832C5.97656-7.7832 5.64453-7.51953 5.64453-7.04102C5.64453-6.57227 5.99609-6.31836 6.49414-6.31836L8.50586-6.31836L8.50586-4.45312C8.50586-3.95508 8.75977-3.62305 9.22852-3.62305Z"/>
  </g>
  <g id="" transform="matrix(1 0 0 1 281.506 1933)">
   <path d="M11.709 2.91016C17.1582 2.91016 21.6699-1.61133 21.6699-7.05078C21.6699-12.5 17.1484-17.0117 11.6992-17.0117C6.25977-17.0117 1.74805-12.5 1.74805-7.05078C1.74805-1.61133 6.26953 2.91016 11.709 2.91016ZM11.709 1.25C7.09961 1.25 3.41797-2.44141 3.41797-7.05078C3.41797-11.6602 7.08984-15.3516 11.6992-15.3516C16.3086-15.3516 20-11.6602 20.0098-7.05078C20.0195-2.44141 16.3184 1.25 11.709 1.25ZM11.6797-2.66602C12.207-2.66602 12.5098-3.01758 12.5098-3.59375L12.5098-6.23047L15.3223-6.23047C15.8691-6.23047 16.25-6.51367 16.25-7.03125C16.25-7.55859 15.8887-7.86133 15.3223-7.86133L12.5098-7.86133L12.5098-10.6836C12.5098-11.25 12.207-11.6113 11.6797-11.6113C11.1621-11.6113 10.8789-11.2305 10.8789-10.6836L10.8789-7.86133L8.07617-7.86133C7.50977-7.86133 7.13867-7.55859 7.13867-7.03125C7.13867-6.51367 7.5293-6.23047 8.07617-6.23047L10.8789-6.23047L10.8789-3.59375C10.8789-3.03711 11.1621-2.66602 11.6797-2.66602Z"/>
  </g>
  <g id="" transform="matrix(1 0 0 1 304.924 1933)">
   <path d="M14.9707 5.66406C21.9336 5.66406 27.6953-0.0976562 27.6953-7.05078C27.6953-14.0137 21.9238-19.7754 14.9609-19.7754C8.00781-19.7754 2.25586-14.0137 2.25586-7.05078C2.25586-0.0976562 8.01758 5.66406 14.9707 5.66406ZM14.9707 3.84766C8.93555 3.84766 4.08203-1.01562 4.08203-7.05078C4.08203-13.0957 8.92578-17.9492 14.9609-17.9492C21.0059-17.9492 25.8594-13.0957 25.8691-7.05078C25.8789-1.01562 21.0156 3.84766 14.9707 3.84766ZM14.9414-1.38672C15.5176-1.38672 15.8594-1.77734 15.8594-2.38281L15.8594-6.13281L19.7754-6.13281C20.3711-6.13281 20.7812-6.46484 20.7812-7.02148C20.7812-7.59766 20.3906-7.93945 19.7754-7.93945L15.8594-7.93945L15.8594-11.8652C15.8594-12.4805 15.5176-12.8711 14.9414-12.8711C14.375-12.8711 14.0527-12.4609 14.0527-11.8652L14.0527-7.93945L10.1465-7.93945C9.53125-7.93945 9.13086-7.59766 9.13086-7.02148C9.13086-6.46484 9.55078-6.13281 10.1465-6.13281L14.0527-6.13281L14.0527-2.38281C14.0527-1.79688 14.375-1.38672 14.9414-1.38672Z"/>
  </g>
  <text style="stroke:none;fill:black;font-family:-apple-system,&quot;SF Pro Display&quot;,&quot;SF Pro Text&quot;,Helvetica,sans-serif;font-weight:bold;" transform="matrix(1 0 0 1 263 1953)">Design Variations</text>
  <text style="stroke:none;fill:black;font-family:-apple-system,&quot;SF Pro Display&quot;,&quot;SF Pro Text&quot;,Helvetica,sans-serif;" transform="matrix(1 0 0 1 263 1971)">Symbols are supported in up to nine weights and three scales.</text>
  <text style="stroke:none;fill:black;font-family:-apple-system,&quot;SF Pro Display&quot;,&quot;SF Pro Text&quot;,Helvetica,sans-serif;" transform="matrix(1 0 0 1 263 1989)">For optimal layout with text and other symbols, vertically align</text>
  <text style="stroke:none;fill:black;font-family:-apple-system,&quot;SF Pro Display&quot;,&quot;SF Pro Text&quot;,Helvetica,sans-serif;" transform="matrix(1 0 0 1 263 2007)">symbols with the adjacent text.</text>
  <line id="" style="fill:none;stroke:#00AEEF;stroke-width:0.5;opacity:1.0;" x1="776" x2="776" y1="1919" y2="1933"/>
  <g id="" transform="matrix(1 0 0 1 776 1933)">
   <path d="M3.31055 0.126953C3.82812 0.126953 4.08203-0.0683594 4.26758-0.605469L5.52734-4.0625L11.2891-4.0625L12.5488-0.605469C12.7344-0.0683594 12.9883 0.126953 13.4961 0.126953C14.0137 0.126953 14.3457-0.185547 14.3457-0.673828C14.3457-0.839844 14.3164-0.986328 14.2383-1.20117L9.6582-13.3887C9.43359-13.9941 9.0332-14.2871 8.4082-14.2871C7.80273-14.2871 7.39258-13.9941 7.17773-13.3984L2.59766-1.19141C2.51953-0.976562 2.49023-0.830078 2.49023-0.664062C2.49023-0.175781 2.80273 0.126953 3.31055 0.126953ZM6.00586-5.53711L8.37891-12.1094L8.42773-12.1094L10.8008-5.53711Z"/>
  </g>
  <line id="" style="fill:none;stroke:#00AEEF;stroke-width:0.5;opacity:1.0;" x1="792.836" x2="792.836" y1="1919" y2="1933"/>
  <text style="stroke:none;fill:black;font-family:-apple-system,&quot;SF Pro Display&quot;,&quot;SF Pro Text&quot;,Helvetica,sans-serif;font-weight:bold;" transform="matrix(1 0 0 1 776 1953)">Margins</text>
  <text style="stroke:none;fill:black;font-family:-apple-system,&quot;SF Pro Display&quot;,&quot;SF Pro Text&quot;,Helvetica,sans-serif;" transform="matrix(1 0 0 1 776 1971)">Leading and trailing margins on the left and right side of each symbol</text>
  <text style="stroke:none;fill:black;font-family:-apple-system,&quot;SF Pro Display&quot;,&quot;SF Pro Text&quot;,Helvetica,sans-serif;" transform="matrix(1 0 0 1 776 1989)">can be adjusted by modifying the x-location of the margin guidelines.</text>
  <text style="stroke:none;fill:black;font-family:-apple-system,&quot;SF Pro Display&quot;,&quot;SF Pro Text&quot;,Helvetica,sans-serif;" transform="matrix(1 0 0 1 776 2007)">Modifications are automatically applied proportionally to all</text>
  <text style="stroke:none;fill:black;font-family:-apple-system,&quot;SF Pro Display&quot;,&quot;SF Pro Text&quot;,Helvetica,sans-serif;" transform="matrix(1 0 0 1 776 2025)">scales and weights.</text>
  <g id="" transform="matrix(1 0 0 1 1289 1933)">
   <path d="M2.8418 1.86523L4.54102 3.57422C5.40039 4.44336 6.38672 4.38477 7.31445 3.35938L17.4902-7.85156C17.7539-7.76367 18.0273-7.7832 18.3398-7.8418L19.4043-8.03711L20.0684-7.36328L20.0293-6.80664C19.9902-6.30859 20.1172-5.92773 20.6055-5.44922L21.3672-4.70703C21.8457-4.22852 22.4609-4.19922 22.9297-4.66797L25.8398-7.58789C26.3086-8.05664 26.2891-8.65234 25.8105-9.13086L25.0391-9.89258C24.5605-10.3711 24.1895-10.5273 23.7109-10.4883L23.1348-10.4395L22.4902-11.0742L22.7344-12.1973C22.8613-12.7637 22.7051-13.2031 22.1191-13.7891L19.9219-15.9766C16.582-19.2969 12.1484-19.2188 9.25781-16.3281C8.83789-15.918 8.80859-15.3418 9.04297-14.9512C9.27734-14.5898 9.73633-14.3555 10.3809-14.5215C11.8457-14.8633 13.3691-14.9219 14.7949-13.9844L14.209-12.5293C14.0137-12.0508 13.9844-11.6504 14.1113-11.2891L3.04688-0.898438C2.06055 0.0195312 1.98242 0.996094 2.8418 1.86523ZM10.752-15.957C13.1836-17.7344 16.4746-17.4316 18.7012-15.2051L21.1328-12.793C21.3672-12.5586 21.4062-12.373 21.3379-12.0312L21.0156-10.5469L22.5195-9.0625L23.5059-9.12109C23.7598-9.13086 23.8379-9.11133 24.0332-8.91602L24.6094-8.33984L22.168-5.89844L21.5918-6.47461C21.3965-6.66992 21.3672-6.74805 21.377-7.01172L21.4453-7.98828L19.9512-9.47266L18.4277-9.21875C18.1055-9.15039 17.959-9.17969 17.7148-9.41406L15.7129-11.416C15.459-11.6504 15.4297-11.8164 15.5859-12.1875L16.4648-14.2773C14.9023-15.7324 12.8711-16.3574 10.8398-15.7617C10.6836-15.7227 10.625-15.8496 10.752-15.957ZM5.27344 2.30469L4.10156 1.14258C3.63281 0.683594 3.74023 0.341797 4.14062-0.0195312L14.9512-10.1953L16.416-8.71094L6.42578 2.27539C6.07422 2.67578 5.74219 2.77344 5.27344 2.30469Z"/>
  </g>
  <text style="stroke:none;fill:black;font-family:-apple-system,&quot;SF Pro Display&quot;,&quot;SF Pro Text&quot;,Helvetica,sans-serif;font-weight:bold;" transform="matrix(1 0 0 1 1289 1953)">Exporting</text>
  <text style="stroke:none;fill:black;font-family:-apple-system,&quot;SF Pro Display&quot;,&quot;SF Pro Text&quot;,Helvetica,sans-serif;" transform="matrix(1 0 0 1 1289 1971)">Symbols should be outlined when exporting to ensure the</text>
  <text style="stroke:none;fill:black;font-family:-apple-system,&quot;SF Pro Display&quot;,&quot;SF Pro Text&quot;,Helvetica,sans-serif;" transform="matrix(1 0 0 1 1289 1989)">design is preserved when submitting to Xcode.</text>
  <text id="template-version" style="stroke:none;fill:black;font-family:-apple-system,&quot;SF Pro Display&quot;,&quot;SF Pro Text&quot;,Helvetica,sans-serif;text-anchor:end;" transform="matrix(1 0 0 1 3036 1933)">Template v.2.0</text>
  <text style="stroke:none;fill:black;font-family:-apple-system,&quot;SF Pro Display&quot;,&quot;SF Pro Text&quot;,Helvetica,sans-serif;text-anchor:end;" transform="matrix(1 0 0 1 3036 1951)">Requires Xcode 12 or greater</text>
  <text style="stroke:none;fill:black;font-family:-apple-system,&quot;SF Pro Display&quot;,&quot;SF Pro Text&quot;,Helvetica,sans-serif;text-anchor:end;" transform="matrix(1 0 0 1 3036 1969)">Generated from pyramid.fill</text>
  <text style="stroke:none;fill:black;font-family:-apple-system,&quot;SF Pro Display&quot;,&quot;SF Pro Text&quot;,Helvetica,sans-serif;text-anchor:end;" transform="matrix(1 0 0 1 3036 1987)">Typeset at 100 points</text>
  <text style="stroke:none;fill:black;font-family:-apple-system,&quot;SF Pro Display&quot;,&quot;SF Pro Text&quot;,Helvetica,sans-serif;" transform="matrix(1 0 0 1 263 726)">Small</text>
  <text style="stroke:none;fill:black;font-family:-apple-system,&quot;SF Pro Display&quot;,&quot;SF Pro Text&quot;,Helvetica,sans-serif;" transform="matrix(1 0 0 1 263 1156)">Medium</text>
  <text style="stroke:none;fill:black;font-family:-apple-system,&quot;SF Pro Display&quot;,&quot;SF Pro Text&quot;,Helvetica,sans-serif;" transform="matrix(1 0 0 1 263 1586)">Large</text>
 </g>
 <g id="Guides">
  <g id="H-reference" style="fill:#27AAE1;stroke:none;" transform="matrix(1 0 0 1 339 696)">
   <path d="M0.976562 0L3.66211 0L12.9883-24.4629L45.752-24.4629L55.127 0L57.7637 0L30.6152-70.459L28.125-70.459ZM29.3457-67.1387L29.4434-67.1387L44.873-26.709L13.8672-26.709Z"/>
  </g>
  <line id="Baseline-S" style="fill:none;stroke:#27AAE1;opacity:1;stroke-width:0.5;" x1="263" x2="3036" y1="696" y2="696"/>
  <line id="Capline-S" style="fill:none;stroke:#27AAE1;opacity:1;stroke-width:0.5;" x1="263" x2="3036" y1="625.541" y2="625.541"/>
  <g id="H-reference" style="fill:#27AAE1;stroke:none;" transform="matrix(1 0 0 1 339 1126)">
   <path d="M0.976562 0L3.66211 0L12.9883-24.4629L45.752-24.4629L55.127 0L57.7637 0L30.6152-70.459L28.125-70.459ZM29.3457-67.1387L29.4434-67.1387L44.873-26.709L13.8672-26.709Z"/>
  </g>
  <line id="Baseline-M" style="fill:none;stroke:#27AAE1;opacity:1;stroke-width:0.5;" x1="263" x2="3036" y1="1126" y2="1126"/>
  <line id="Capline-M" style="fill:none;stroke:#27AAE1;opacity:1;stroke-width:0.5;" x1="263" x2="3036" y1="1055.54" y2="1055.54"/>
  <g id="H-reference" style="fill:#27AAE1;stroke:none;" transform="matrix(1 0 0 1 339 1556)">
   <path d="M0.976562 0L3.66211 0L12.9883-24.4629L45.752-24.4629L55.127 0L57.7637 0L30.6152-70.459L28.125-70.459ZM29.3457-67.1387L29.4434-67.1387L44.873-26.709L13.8672-26.709Z"/>
  </g>
  <line id="Baseline-L" style="fill:none;stroke:#27AAE1;opacity:1;stroke-width:0.5;" x1="263" x2="3036" y1="1556" y2="1556"/>
  <line id="Capline-L" style="fill:none;stroke:#27AAE1;opacity:1;stroke-width:0.5;" x1="263" x2="3036" y1="1485.54" y2="1485.54"/>
  <line id="left-margin" style="fill:none;stroke:#00AEEF;stroke-width:0.5;opacity:1.0;" x1="1388.78" x2="1388.78" y1="1030.79" y2="1150.12"/>
  <line id="right-margin" style="fill:none;stroke:#00AEEF;stroke-width:0.5;opacity:1.0;" x1="1510.9" x2="1510.9" y1="1030.79" y2="1150.12"/>
 </g>
 <g id="Symbols">
  <g id="Black-L" transform="matrix(1 0 0 1 2848.46 1556)">
   <path d="M15.2344-1.07422C10.9375 6.10352 12.5488 13.0371 19.2871 16.0645L73.7793 40.4785C74.707 40.918 75.6836 41.3574 76.6113 41.748L76.6113-102.588C75.6836-101.807 74.9512-100.879 74.3164-99.8047ZM154.59-1.02539L95.5566-99.7559C94.873-100.83 94.1406-101.758 93.2617-102.539L93.2617 41.7969C94.1895 41.4062 95.1172 40.918 96.0449 40.5273L150.586 16.1133C157.324 13.0859 158.936 6.15234 154.59-1.02539Z"/>
  </g>
  <g id="Heavy-L" transform="matrix(1 0 0 1 2553.51 1556)">
   <path d="M14.9902-0.292969C11.084 6.15234 12.5977 12.4023 18.75 15.1367L72.5586 39.0625C73.7305 39.5996 74.8535 40.0879 75.9766 40.4785L75.9766-102.148C75.0977-101.416 74.3652-100.537 73.7305-99.5117ZM151.367-0.244141L92.627-99.4141C91.9434-100.439 91.2598-101.367 90.3809-102.051L90.3809 40.5273C91.5039 40.1367 92.627 39.5996 93.7988 39.1113L147.607 15.1855C153.711 12.4512 155.225 6.25 151.367-0.244141Z"/>
  </g>
  <g id="Bold-L" transform="matrix(1 0 0 1 2258.78 1556)">
   <path d="M14.6973 0.537109C11.3281 6.20117 12.6953 11.6699 18.1152 14.0625L71.2402 37.4512C72.6562 38.1348 73.9258 38.623 75.2441 39.0625L75.2441-101.611C74.4141-100.977 73.6816-100.146 73.0957-99.1211ZM147.705 0.585938L89.3555-99.0723C88.6719-100.049 87.9883-100.928 87.1582-101.514L87.1582 39.1113C88.4766 38.6719 89.7949 38.1348 91.2598 37.5L144.287 14.1602C149.707 11.7676 151.074 6.29883 147.705 0.585938Z"/>
  </g>
  <g id="Semibold-L" transform="matrix(1 0 0 1 1963.41 1556)">
   <path d="M14.502 1.07422C11.4746 6.25 12.7441 11.1816 17.7246 13.3789L70.2637 36.377C71.875 37.1094 73.291 37.6465 74.7559 38.0859L74.7559-101.221C73.9746-100.684 73.1934-99.8535 72.6074-98.877ZM145.215 1.17188L87.0605-98.8281C86.4746-99.8047 85.7422-100.586 84.9609-101.172L84.9609 38.1348C86.377 37.6953 87.8418 37.1094 89.502 36.377L141.992 13.4277C146.924 11.2793 148.242 6.34766 145.215 1.17188Z"/>
  </g>
  <g id="Medium-L" transform="matrix(1 0 0 1 1667.72 1556)">
   <path d="M14.3555 1.51367C11.5723 6.29883 12.793 10.791 17.3828 12.793L69.5801 35.5469C71.2891 36.3281 72.8516 36.9141 74.3652 37.3047L74.3652-100.977C73.584-100.439 72.8516-99.6582 72.2656-98.6816ZM143.311 1.61133L85.3516-98.6328C84.7656-99.5605 84.0332-100.391 83.252-100.879L83.252 37.4023C84.8145 36.9629 86.377 36.3281 88.1836 35.5469L140.234 12.8906C144.824 10.8887 146.045 6.39648 143.311 1.61133Z"/>
  </g>
  <g id="Regular-L" transform="matrix(1 0 0 1 1372.35 1556)">
   <path d="M14.1602 2.09961C11.7188 6.34766 12.8906 10.3027 16.9922 12.1094L68.6523 34.4727C70.5566 35.3027 72.2168 35.9375 73.877 36.3281L73.877-100.635C73.1445-100.146 72.3633-99.4141 71.8262-98.4375ZM140.82 2.19727L83.1055-98.3398C82.5195-99.3164 81.8359-100.049 81.0547-100.537L81.0547 36.4258C82.7637 35.9863 84.4727 35.3027 86.4746 34.4727L137.988 12.207C142.09 10.4004 143.262 6.44531 140.82 2.19727Z"/>
  </g>
  <g id="Light-L" transform="matrix(1 0 0 1 1077.47 1556)">
   <path d="M14.2578 0.732422C11.5234 5.46875 12.8906 10.0098 17.627 12.1094L66.9434 33.6426C69.1406 34.6191 70.9473 35.3027 72.8027 35.5957L72.8027-99.1699C71.875-98.7305 71.0449-97.9492 70.459-96.9727ZM137.061 0.78125L80.8594-96.9238C80.2734-97.9004 79.4434-98.6816 78.5156-99.0723L78.5156 35.6934C80.3711 35.2539 82.2754 34.5703 84.6191 33.5449L133.691 12.1582C138.428 10.0586 139.746 5.51758 137.061 0.78125Z"/>
  </g>
  <g id="Thin-L" transform="matrix(1 0 0 1 783.18 1556)">
   <path d="M14.4043-1.07422C11.3281 4.3457 12.9395 9.61914 18.5059 12.1094L64.7461 32.5684C67.2852 33.7402 69.3359 34.4238 71.3867 34.6191L71.3867-97.2168C70.2148-96.8262 69.2383-95.9961 68.6035-94.9707ZM132.08-1.07422L77.8809-94.9707C77.2461-95.9961 76.2695-96.7773 75.0977-97.2168L75.0977 34.668C77.1484 34.3262 79.3457 33.5938 82.1289 32.373L127.979 12.1094C133.545 9.61914 135.205 4.3457 132.08-1.07422Z"/>
  </g>
  <g id="Ultralight-L" transform="matrix(1 0 0 1 487.714 1556)">
   <path d="M129.541-2.05078L76.3672-93.9941C75.7324-95.0195 74.6582-95.8496 73.3887-96.2402L73.3887 34.1309C75.5371 33.8379 77.832 33.1055 80.8594 31.7383L125.098 12.1094C131.055 9.42383 132.812 3.75977 129.541-2.05078ZM14.502-2.00195C11.1816 3.75977 12.9395 9.42383 18.9453 12.1094L63.623 32.0312C66.3574 33.252 68.5059 33.9844 70.6543 34.1309L70.6543-96.2402C69.3848-95.8496 68.3105-95.0195 67.627-93.9453Z"/>
  </g>
  <g id="Black-M" transform="matrix(1 0 0 1 2866.16 1126)">
   <path d="M122.217-10.498L76.8066-84.9121C76.2695-85.791 75.6348-86.6211 74.8047-87.3047L74.8047 25.7324C75.3418 25.4883 75.9766 25.1953 76.5137 24.9512L118.457 5.81055C124.805 2.88086 126.367-3.71094 122.217-10.498ZM12.2559-10.4492C8.1543-3.71094 9.66797 2.88086 16.0645 5.81055L57.959 24.9512C58.4961 25.1953 59.1309 25.4883 59.668 25.7324L59.668-87.3047C58.8379-86.5723 58.2031-85.791 57.666-84.9121Z"/>
  </g>
  <g id="Heavy-M" transform="matrix(1 0 0 1 2570.92 1126)">
   <path d="M11.9141-9.32617C8.39844-3.41797 9.7168 2.24609 15.2832 4.78516L57.0801 23.584C57.7637 23.9258 58.5449 24.2676 59.2285 24.5605L59.2285-87.1582C58.4961-86.5234 57.9102-85.791 57.373-84.9609ZM119.629-9.27734L74.1699-84.9121C73.6328-85.7422 73.0469-86.5234 72.3145-87.1582L72.3145 24.5605C73.0469 24.2676 73.7793 23.9258 74.5117 23.584L116.309 4.78516C121.826 2.29492 123.193-3.41797 119.629-9.27734Z"/>
  </g>
  <g id="Bold-M" transform="matrix(1 0 0 1 2275.84 1126)">
   <path d="M11.5723-8.00781C8.64258-3.125 9.81445 1.5625 14.4043 3.61328L56.0547 22.0703C56.9824 22.5098 57.8613 22.9004 58.7402 23.1934L58.7402-87.0117C58.1055-86.4746 57.5195-85.791 57.0312-85.0098ZM116.748-7.95898L71.2402-84.9609C70.752-85.7422 70.166-86.4258 69.5312-86.9629L69.5312 23.2422C70.4102 22.9492 71.3379 22.5098 72.2656 22.1191L113.867 3.66211C118.506 1.61133 119.629-3.07617 116.748-7.95898Z"/>
  </g>
  <g id="Semibold-M" transform="matrix(1 0 0 1 1980.25 1126)">
   <path d="M11.3281-7.12891C8.83789-2.92969 9.86328 1.07422 13.8184 2.83203L55.3223 21.0449C56.3965 21.5332 57.4219 21.9727 58.4473 22.2656L58.4473-86.9141C57.8125-86.4258 57.2754-85.791 56.8359-85.0098ZM114.746-7.03125L69.1895-84.9609C68.75-85.7422 68.2129-86.377 67.627-86.8652L67.627 22.3633C68.6035 21.9727 69.6289 21.5332 70.752 21.0938L112.256 2.88086C116.211 1.12305 117.188-2.83203 114.746-7.03125Z"/>
  </g>
  <g id="Medium-M" transform="matrix(1 0 0 1 1684.4 1126)">
   <path d="M11.1328-6.44531C8.98438-2.73438 9.86328 0.732422 13.3301 2.24609L54.7852 20.2637C56.0059 20.8008 57.0801 21.2402 58.1543 21.582L58.1543-86.8164C57.6172-86.4258 57.0801-85.791 56.6406-85.0586ZM113.232-6.34766L67.6758-84.9609C67.1875-85.6934 66.6992-86.3281 66.1621-86.7676L66.1621 21.6797C67.2363 21.2891 68.3594 20.8008 69.5801 20.3125L110.986 2.29492C114.453 0.78125 115.381-2.68555 113.232-6.34766Z"/>
  </g>
  <g id="Regular-M" transform="matrix(1 0 0 1 1388.78 1126)">
   <path d="M10.8887-5.51758C9.13086-2.53906 9.91211 0.244141 12.7441 1.46484L54.1016 19.2383C55.4199 19.8242 56.6406 20.3125 57.8613 20.6543L57.8613-86.7188C57.373-86.377 56.8359-85.791 56.4453-85.1074ZM111.23-5.41992L65.6738-85.0098C65.2344-85.6934 64.7461-86.2793 64.2578-86.6211L64.2578 20.752C65.4785 20.3613 66.6992 19.873 68.0664 19.2871L109.326 1.5625C112.158 0.341797 112.939-2.44141 111.23-5.41992Z"/>
  </g>
  <g id="Light-M" transform="matrix(1 0 0 1 1093.71 1126)">
   <path d="M10.9863-6.73828C8.98438-3.32031 9.96094-0.0488281 13.3301 1.46484L52.6367 18.5059C54.1992 19.2383 55.5176 19.7266 56.8848 20.0195L56.8848-85.4004C56.25-85.0586 55.6152-84.4727 55.1758-83.7402ZM107.861-6.68945L63.6719-83.6914C63.1836-84.4238 62.5977-85.0098 61.9629-85.3516L61.9629 20.0684C63.3301 19.7266 64.6973 19.1895 66.3574 18.5059L105.518 1.51367C108.887 0.0488281 109.863-3.22266 107.861-6.68945Z"/>
  </g>
  <g id="Thin-M" transform="matrix(1 0 0 1 799.147 1126)">
   <path d="M11.1328-8.39844C8.78906-4.29688 10.0098-0.390625 14.1602 1.46484L50.6348 17.5293C52.5391 18.4082 54.1016 18.9453 55.6152 19.1406L55.6152-83.6914C54.7852-83.3496 54.0527-82.7637 53.5645-81.9824ZM103.418-8.34961L60.9863-81.9336C60.498-82.7148 59.7656-83.3496 58.9355-83.6914L58.9355 19.1406C60.498 18.8477 62.1094 18.3105 64.1602 17.4316L100.439 1.46484C104.541-0.341797 105.762-4.29688 103.418-8.34961Z"/>
  </g>
  <g id="Ultralight-M" transform="matrix(1 0 0 1 503.534 1126)">
   <path d="M101.123-9.22852L59.668-81.0547C59.1309-81.8848 58.3496-82.5195 57.373-82.8125L57.373 18.6523C59.0332 18.4082 60.791 17.8711 63.0371 16.8457L97.8027 1.46484C102.344-0.585938 103.662-4.83398 101.123-9.22852ZM11.2305-9.22852C8.69141-4.83398 10.0098-0.537109 14.5508 1.46484L49.6582 17.041C51.709 17.9688 53.3203 18.5547 54.9805 18.6523L54.9805-82.8125C54.0039-82.4707 53.2227-81.8848 52.7344-81.0547Z"/>
  </g>
  <g id="Black-S" transform="matrix(1 0 0 1 2880.81 696)">
   <path d="M9.57031-15.7227C6.39648-10.498 7.56836-5.41992 12.5-3.17383L45.3613 11.8164C45.8008 12.0117 46.2891 12.2559 46.7285 12.4512L46.7285-76.0254C46.0938-75.4883 45.6055-74.8535 45.166-74.1699ZM95.6055-15.7227L60.0098-74.1699C59.5703-74.8535 59.082-75.4883 58.4473-76.0254L58.4473 12.4512C58.8867 12.2559 59.375 12.0117 59.8145 11.8164L92.6758-3.17383C97.6074-5.41992 98.7793-10.498 95.6055-15.7227Z"/>
  </g>
  <g id="Heavy-S" transform="matrix(1 0 0 1 2585.03 696)">
   <path d="M9.32617-14.6973C6.5918-10.2051 7.61719-5.85938 11.8652-3.95508L44.8242 10.8887C45.4102 11.1328 45.9473 11.377 46.5332 11.6211L46.5332-76.0742C45.9473-75.5859 45.5078-75 45.1172-74.3652ZM93.9941-14.6973L58.2031-74.3164C57.8125-75 57.373-75.5859 56.7871-76.0254L56.7871 11.6211C57.373 11.4258 57.9102 11.1328 58.4961 10.8887L91.4551-3.95508C95.7031-5.85938 96.7285-10.2051 93.9941-14.6973Z"/>
  </g>
  <g id="Bold-S" transform="matrix(1 0 0 1 2289.37 696)">
   <path d="M9.0332-13.5254C6.83594-9.86328 7.66602-6.34766 11.1328-4.83398L44.2383 9.81445C44.9219 10.1074 45.6055 10.4004 46.2891 10.6445L46.2891-76.123C45.8008-75.6836 45.3613-75.1465 45.0195-74.5605ZM92.1875-13.5254L56.2012-74.5117C55.8105-75.0977 55.4199-75.6836 54.9316-76.0742L54.9316 10.6934C55.6152 10.4492 56.2988 10.1074 56.9824 9.86328L90.0879-4.78516C93.5547-6.29883 94.3848-9.81445 92.1875-13.5254Z"/>
  </g>
  <g id="Semibold-S" transform="matrix(1 0 0 1 1993.39 696)">
   <path d="M8.83789-12.7441C6.98242-9.66797 7.71484-6.68945 10.5957-5.41992L43.8477 9.08203C44.6289 9.42383 45.3613 9.7168 46.0938 10.0098L46.0938-76.1719C45.7031-75.7812 45.2637-75.293 44.9219-74.707ZM90.9668-12.6953L54.834-74.6094C54.4434-75.1953 54.1016-75.7324 53.6621-76.0742L53.6621 10.0586C54.4434 9.76562 55.1758 9.42383 55.957 9.13086L89.1602-5.37109C92.0898-6.64062 92.7734-9.57031 90.9668-12.6953Z"/>
  </g>
  <g id="Medium-S" transform="matrix(1 0 0 1 1697.21 696)">
   <path d="M8.64258-12.1582C7.08008-9.47266 7.71484-6.98242 10.2051-5.9082L43.5547 8.54492C44.3848 8.88672 45.166 9.22852 45.9473 9.52148L45.9473-76.1719C45.6055-75.8301 45.2148-75.3906 44.873-74.8047ZM89.9902-12.0605L53.8086-74.707C53.418-75.293 53.0762-75.7812 52.7344-76.123L52.7344 9.61914C53.5156 9.27734 54.2969 8.93555 55.1758 8.59375L88.4766-5.81055C90.9668-6.88477 91.6016-9.375 89.9902-12.0605Z"/>
  </g>
  <g id="Regular-S" transform="matrix(1 0 0 1 1401.21 696)">
   <path d="M8.44727-11.377C7.27539-9.22852 7.76367-7.32422 9.7168-6.49414L43.1152 7.8125C44.043 8.20312 44.9219 8.54492 45.8008 8.88672L45.8008-76.2207C45.459-75.9277 45.1172-75.4883 44.8242-74.9512ZM88.7695-11.2793L52.4414-74.8535C52.0996-75.3906 51.7578-75.8301 51.4648-76.123L51.4648 8.98438C52.3438 8.64258 53.2227 8.25195 54.1504 7.86133L87.5488-6.39648C89.502-7.22656 89.9902-9.17969 88.7695-11.2793Z"/>
  </g>
  <g id="Light-S" transform="matrix(1 0 0 1 1105.94 696)">
   <path d="M8.54492-12.4512C7.12891-9.91211 7.8125-7.56836 10.2539-6.49414L41.7969 7.12891C42.9688 7.66602 43.9453 8.05664 44.9707 8.30078L44.9707-75.0488C44.4824-74.7559 44.043-74.3164 43.75-73.7305ZM85.791-12.4023L50.6348-73.6816C50.293-74.2676 49.8535-74.707 49.4141-75L49.4141 8.34961C50.4395 8.05664 51.4648 7.66602 52.6367 7.17773L84.1309-6.44531C86.5723-7.4707 87.2559-9.86328 85.791-12.4023Z"/>
  </g>
  <g id="Thin-S" transform="matrix(1 0 0 1 811.134 696)">
   <path d="M8.69141-13.8672C6.93359-10.791 7.86133-7.86133 10.9375-6.49414L40.0879 6.29883C41.5039 6.93359 42.6758 7.37305 43.8477 7.51953L43.8477-73.5352C43.2129-73.291 42.627-72.8027 42.2852-72.168ZM81.8848-13.8672L48.291-72.168C47.9492-72.7539 47.3633-73.2422 46.7773-73.4863L46.7773 7.56836C47.9492 7.32422 49.1699 6.88477 50.6836 6.20117L79.6387-6.44531C82.7637-7.8125 83.6426-10.791 81.8848-13.8672Z"/>
  </g>
  <g id="Ultralight-S" transform="matrix(1 0 0 1 515.4 696)">
   <path d="M8.78906-14.6484C6.83594-11.2793 7.86133-8.00781 11.2793-6.49414L39.1602 5.85938C40.7715 6.5918 41.9922 7.03125 43.2617 7.12891L43.2617-72.7539C42.5293-72.5098 41.8945-72.0215 41.5527-71.3867ZM79.8828-14.5996L47.1191-71.3867C46.7285-72.0215 46.0938-72.5098 45.3613-72.7539L45.3613 7.12891C46.6309 6.93359 47.998 6.49414 49.707 5.71289L77.3438-6.49414C80.7617-8.00781 81.7871-11.2793 79.8828-14.5996Z"/>
  </g>
 </g>
</svg>
